<svg height="54" viewBox="0 0 38 54" width="38" xmlns="http://www.w3.org/2000/svg"><path d="m0 0h38v54h-38z" fill="none"/><path d="m12.0958 8.51c.5046.0052.9095.4186.9042.9233-.0053.5046-.4186.9095-.9233.9042h-4.1726c-.4973-.0052-.899-.407-.9042-.9042-.0052-.5046.3996-.918.9042-.9233zm3.775 40.4968c-.1697.0022-.3456.0032-.5182.0032h-.1177s-10.5293 0-10.5293 0h-.0582c-.2742 0-.5689-.0006-.8077-.0084-.3561-.0115-.6215-.0384-.8607-.0873-.2571-.0526-.4822-.1315-.6883-.2412-.2072-.1103-.3944-.2521-.5568-.4218-.1645-.1718-.3026-.371-.4105-.592-.1089-.2233-.1873-.4672-.2394-.7457-.0481-.2563-.0745-.54-.0858-.92-.0085-.2856-.0083-.6478-.0082-.976v-33.0427c-.0001-.3207-.0004-.6829.0082-.9686.0113-.38.0377-.6637.0858-.92.0522-.2783.1305-.5222.2394-.7455.108-.2213.246-.4203.4106-.5922.1623-.1696.3496-.3115.5566-.4217.2062-.1097.4312-.1886.6882-.241.2388-.0489.5044-.0759.8608-.0875.2339-.0076.5219-.0084.7922-.0084h.24s10.1282.0001 10.1282.0001c0-.3091.0007-.6486.0089-.92.0008-.0258.0033-.0448.0042-.07h-10.246c-.0443-.0001-.0895-.0001-.1351-.0001-.2812 0-.5808.0011-.8242.0089-.4148.0135-.7317.0466-1.0273.1071-.3512.0717-.6636.1819-.955.337-.3001.1598-.5715.3654-.8068.6111s-.4321.5291-.5851.8426c-.1485.3044-.2541.6306-.3228.9974-.0579.3088-.0895.6396-.1023 1.0729-.0087.2966-.0085.6733-.0085 1.0058v33.0343c0 .3325-.0003.7094.0086 1.006.0128.4331.0444.764.1023 1.0729.0688.367.1744.6932.3228.9974.153.3134.3499.5968.5851.8425s.5066.4513.8068.611c.2913.155.6036.2653.955.3372.2963.0606.6132.0936 1.0273.1069.2478.0081.5543.009.8395.009h.1179 10.4696.1177c.2852 0 .5919-.0009.8396-.009.2064-.0067.3884-.0182.5559-.0356-.1421-.1146-.2827-.2314-.4098-.3637-.173-.18-.3268-.3773-.4675-.5848zm13.2155-44.4202h-4.1726c-.5046-.0003-.9139.4086-.9142.9132-.0002.5046.4086.9139.9132.9142h4.1736c.5046 0 .9137-.4091.9137-.9137s-.4091-.9137-.9137-.9137zm8.9137 3.5194v36.7881c0 .1515 0 .3156-.0009.4769 0 .0002.0002.0004.0002.0006s-.0002.0004-.0002.0006c-.0009.1862-.0028.369-.0074.5275-.0135.4413-.0459.7783-.1053 1.0925-.0712.3786-.1808.7158-.335 1.0306-.1595.326-.3649.6204-.6103.8757-.2454.2552-.5286.4689-.8412.6348-.303.1605-.6272.2745-.9915.3484-.3027.0618-.6266.0955-1.0499.1093-.1114.0037-.2383.0054-.3669.0067-.0006 0-.001.0007-.0016.0007-.0005 0-.0009-.0007-.0015-.0007-.1384.0014-.278.002-.4164.002-.0002 0-.0003.0002-.0005.0002s-.0004-.0002-.0005-.0002c-.025 0-.051.0002-.0755.0002h-12.3906c-.2889 0-.6091-.0007-.8634-.009-.423-.0138-.7469-.0474-1.0499-.1093-.3052-.062-.5782-.1595-.8383-.2817-.0501-.0235-.1037-.0408-.1526-.0668-.3121-.1655-.5946-.3788-.8397-.6332-.0005-.0006-.0013-.001-.0018-.0016-.2454-.2552-.4508-.5496-.6103-.8753-.1542-.3152-.2639-.6524-.335-1.031-.0597-.3168-.0923-.6534-.1053-1.0922-.0089-.2972-.0086-.6812-.0086-1.0085v-36.7824c0-.036.0002-.0762.0002-.1134 0-.301.0004-.6309.0084-.8951.001-.0351.0043-.0609.0056-.0947.0151-.3892.0447-.7067.0997-.9977.0712-.3786.1808-.7158.335-1.0307.1595-.3254.3649-.6201.6103-.8753s.5287-.4689.8412-.6348c.303-.1605.6272-.2745.9911-.3484.3021-.0618.626-.0955 1.0499-.1096.1111-.0035.2398-.0052.368-.0067.0003 0 .0005-.0003.0009-.0003s.0004.0003.0007.0003c.117-.0013.2322-.0019.3492-.0019h.0683s0 0 .0002 0h.0002.0175c.0359 0 .0724-.0002.1078-.0002h12.2541c.0689-.0002.1403-.0004.2128-.0004.2535 0 .52.0021.7374.0091.4243.0141.7482.0477 1.0502.1096.364.074.6882.188.9908.3484.3129.1659.5961.3795.8415.6348.2454.2552.4508.5499.6103.875.1542.3152.2639.6524.335 1.0313.0594.3138.0917.6508.1053 1.0922.0046.1586.0065.3415.0074.5278 0 .0002.0002.0004.0002.0006s-.0002.0004-.0002.0006c.0008.1613.0009.3253.0009.4766zm-1 0-.0009-.4719c-.0009-.1788-.0026-.3534-.007-.5047-.0119-.3867-.0391-.6756-.0883-.9353-.0546-.2904-.1364-.5443-.2507-.7776-.1137-.2318-.2595-.4412-.4329-.6216-.1718-.1786-.37-.3281-.5891-.4443-.2168-.1149-.4528-.1974-.7216-.252-.2452-.0502-.5175-.0779-.8843-.09-.2067-.0067-.4617-.0085-.7042-.0085l-.2086.0004h-12.4523l-.3372.0018h-.002c-.1212.0014-.2427.0029-.3478.0062-.3652.0121-.6375.0399-.8813.0898-.2701.0549-.5063.1374-.7236.2524-.2184.116-.4166.2655-.5883.4442-.1735.1804-.3192.3898-.4332.6224-.114.2327-.1959.4863-.2501.7751-.0475.2512-.0734.5312-.0859.8918-.0006.0169-.0021.0289-.0027.0462-.0084.2786-.0082.6369-.0082.9474v36.8137c0 .3416-.0002.6995.0082.9786.0113.3837.0386.6725.0884.9369.0544.2894.1363.5433.2505.7766.1136.2319.2593.4412.433.6219.0798.083.183.1365.2737.2065.1045.0806.1981.1757.3154.2379.1976.1048.4181.1755.658.2298.0232.0052.0399.0174.0635.0222.2461.0502.5182.0778.8833.0897.2449.008.553.0084.8309.0084h12.4667l.407-.0022c.1236-.0013.2427-.0028.3471-.0062.3656-.0119.6377-.0395.8826-.0895.27-.0548.5062-.1373.7236-.2524.2184-.1159.4166-.2654.5883-.4441.1738-.1807.3194-.39.4329-.622.1143-.2334.1962-.487.2504-.7759.0494-.2613.0767-.5504.0886-.9385.0043-.1497.0061-.3242.007-.5018l.0009-.4731v-36.7883z"/></svg>