<svg height="54" viewBox="0 0 38 54" width="38" xmlns="http://www.w3.org/2000/svg"><path d="m0 0h38v54h-38z" fill="none"/><path d="m14.3429 49h-8.8579-.3279a7.2288 7.2288 0 0 1 -1.3113-.087 2.4564 2.4564 0 0 1 -.65-.2175 2.0206 2.0206 0 0 1 -.89-.89 2.4492 2.4492 0 0 1 -.2175-.65 4.5843 4.5843 0 0 1 -.0738-.6681c-.0124-.2535-.0134-.5278-.0139-.789v-34.4793c0-.261.0015-.5354.0139-.79a4.6013 4.6013 0 0 1 .0735-.666 2.4558 2.4558 0 0 1 .2178-.6506 2.0183 2.0183 0 0 1 .89-.89 2.4461 2.4461 0 0 1 .6506-.2177 5.07 5.07 0 0 1 .8257-.08c.2319-.0072.5234-.0077.7878-.0077h.407 1.0131a.3.3 0 0 1 .3005.3v.39a1.0012 1.0012 0 0 0 1.0027.9995h5.3181v-1.7713-.3989c0-.1718.0064-.2617.01-.4363h-7.8444l-.2076-.0001c-.2746 0-.5778.0007-.8188.0082a6.176 6.176 0 0 0 -.9866.0154 3.4482 3.4482 0 0 0 -.9126.308 3.0171 3.0171 0 0 0 -1.3271 1.3272 3.4525 3.4525 0 0 0 -.3081.9125 5.6423 5.6423 0 0 0 -.0909.81c-.0131.2685-.0146.5594-.0151.836v.367 33.7488.3672c0 .2764.002.5673.0151.8359a5.6425 5.6425 0 0 0 .0909.81 3.4519 3.4519 0 0 0 .3081.9126 3.02 3.02 0 0 0 1.3271 1.3272 3.4554 3.4554 0 0 0 .9126.308 8.0489 8.0489 0 0 0 1.499.106q.1649 0 .3321 0h9.8a3.7429 3.7429 0 0 1 -.9422-1zm-4.9641-41.5806a.133.133 0 0 1 .1329-.1328h3.0844a.1332.1332 0 0 1 .1331.1328v.0206a.1332.1332 0 0 1 -.1331.1329h-3.0844a.133.133 0 0 1 -.1329-.1329zm-1.5359.8806a.465.465 0 0 1 .4324-.2233.45.45 0 0 1 0 .8969.45.45 0 0 1 -.4324-.6736zm29.1571-.612c-.0005-.3018-.0022-.6193-.0164-.9123a6.1265 6.1265 0 0 0 -.0991-.8839 3.7547 3.7547 0 0 0 -.3357-.9943 3.285 3.285 0 0 0 -1.4461-1.4461 3.7584 3.7584 0 0 0 -.9943-.3357 8.8581 8.8581 0 0 0 -1.6495-.1152c-.1452 0-.2917 0-.44 0h-11.9337-.2266c-.299 0-.6294.0009-.8918.009a6.6681 6.6681 0 0 0 -1.075.1067 3.7547 3.7547 0 0 0 -.9943.3357 3.285 3.285 0 0 0 -1.4461 1.4461 3.7547 3.7547 0 0 0 -.3357.9943 6.0984 6.0984 0 0 0 -.0991.8839c-.0061.1258-.0046.26-.0071.3917-.0029.1749-.009.3484-.0093.5206v.3972 36.83q0 .2013 0 .3972c.0005.3018.0022.6193.0164.9122a6.1012 6.1012 0 0 0 .0991.8841 3.7565 3.7565 0 0 0 .3357.9942 3.2967 3.2967 0 0 0 .6077.8384c.0276.0275.06.049.0886.0755a3.3 3.3 0 0 0 .75.5324 3.7579 3.7579 0 0 0 .9943.3355 6.3931 6.3931 0 0 0 .9649.099c.227.0093.4551.0152.6846.0161q.1606.0007.3239 0h12.05.2278c.2988 0 .6284-.0009.8906-.009a6.6568 6.6568 0 0 0 1.075-.1067 3.7616 3.7616 0 0 0 .9943-.3355 3.2882 3.2882 0 0 0 1.4461-1.4463 3.7565 3.7565 0 0 0 .3357-.9942 6.1292 6.1292 0 0 0 .0991-.8841c.0142-.2929.0159-.61.0164-.9122q0-.1962 0-.3972v-36.8299c-.0004-.1342-.0004-.2663-.0004-.3972zm-12.7288-4.0952a.1329.1329 0 0 1 .1328-.1328h3.0845a.133.133 0 0 1 .1328.1328v.0208a.133.133 0 0 1 -.1328.1329h-3.0845a.1329.1329 0 0 1 -.1328-.1329zm-1.4861.8377a.4658.4658 0 0 1 .3965-.2249l.0361.0016a.45.45 0 0 1 0 .8969l-.0357.0016a.45.45 0 0 1 -.3967-.6752zm13.2149 40.4843v.3956c0 .2863-.0032.5875-.0166.866a5.12 5.12 0 0 1 -.0815.74 2.7516 2.7516 0 0 1 -.2457.7322 2.285 2.285 0 0 1 -1.008 1.0081 2.75 2.75 0 0 1 -.7319.2451 5.5936 5.5936 0 0 1 -.9141.0887c-.2529.0078-.5713.01-.86.01h-12.277l-.3203-.0005q-.3614-.0014-.7058-.0173a5.2715 5.2715 0 0 1 -.7554-.081 2.7548 2.7548 0 0 1 -.7319-.245 2.2881 2.2881 0 0 1 -1.0083-1.0086 2.7519 2.7519 0 0 1 -.2454-.7323 5.068 5.068 0 0 1 -.0815-.74c-.0134-.2779-.0166-.5791-.0166-.8658v-.4386-36.7862-.3952c0-.1726.0073-.347.0105-.5222.0024-.1154.0007-.2333.0061-.3439a5.0375 5.0375 0 0 1 .0818-.74 2.7415 2.7415 0 0 1 .2454-.7323 2.2828 2.2828 0 0 1 1.008-1.008 2.7562 2.7562 0 0 1 .7319-.2452 5.6244 5.6244 0 0 1 .9141-.0886c.2534-.0078.572-.0085.8608-.0085h.1175.8508v.0006h.9443a.3.3 0 0 1 .3008.3v.39a1.0009 1.0009 0 0 0 1.0024 1h5.8a1.0012 1.0012 0 0 0 1.0025-.9872l.0049-.4058a.3006.3006 0 0 1 .3007-.2962h1.0167v-.0015h.8191.4365a8.07 8.07 0 0 1 1.4615.0966 2.7514 2.7514 0 0 1 .7319.2452 2.2859 2.2859 0 0 1 1.0083 1.0085 2.7432 2.7432 0 0 1 .2451.7316 5.08 5.08 0 0 1 .0818.74c.0134.278.0164.5793.0166.8659v.4386z" fill="#1d1d1f"/></svg>