<svg height="54" viewBox="0 0 39 54" width="39" xmlns="http://www.w3.org/2000/svg"><path d="m0 0h39v54h-39z" fill="none"/><path d="m27.0328 39.8358a9.6818 9.6818 0 0 0 2.6093.3233v8.4278a1.5394 1.5394 0 0 1 -1.3534 1.4131h-1.5482a1.6036 1.6036 0 0 1 -1.4291-1.6255v-9.19a14.27 14.27 0 0 0 1.7214.6513zm-1.7214-1.7471a11.26 11.26 0 0 1 -3.3114-2.5614 6.1631 6.1631 0 0 1 -1.6061-3.7179 6.5061 6.5061 0 0 1 .8023-3.372 5.831 5.831 0 0 1 4.5575-2.7721q.069 0 .1388.0023c1.3919.046 4.7552.3588 7.7759 4.359a4.8053 4.8053 0 0 0 -.4881.0435 5.8333 5.8333 0 0 0 -3.9685 2.6441 7.6982 7.6982 0 0 0 -1.2354 4.3528 3.7467 3.7467 0 0 0 .0859.6771 4.03 4.03 0 0 0 .5993 1.3713 6.7175 6.7175 0 0 1 -1.3374-.2362 13.0444 13.0444 0 0 1 -2.0128-.7905zm1.0656-6.333a1.018 1.018 0 0 0 1.2815-.1049l.058-.0724a.9837.9837 0 0 0 -.2954-1.5628l-1.51-.9718a1.1436 1.1436 0 0 0 -1.4122.0817l-.0849.0824a.97.97 0 0 0 .25 1.4446zm11.7345 4.1955a4.53 4.53 0 0 1 -.1571.5957 6.3594 6.3594 0 0 1 -.6364 1.3174 6.0093 6.0093 0 0 1 -1.188 1.4857 4.0341 4.0341 0 0 1 -2.9661 1.1715 5.5073 5.5073 0 0 1 -1.8476-.3149c-.0742-.0347-.1323-.069-.2021-.1036a7.58 7.58 0 0 1 -.8175-.4632 4.455 4.455 0 0 1 -.6138-.4812c-.0144-.0137-.0268-.0275-.0407-.0413a3.0536 3.0536 0 0 1 -.8514-1.553 2.76 2.76 0 0 1 -.0608-.4111c-.1566-1.8221.9377-5.7234 4.5766-6.3441a4.1141 4.1141 0 0 1 .6913-.0621c.0674 0 .139.0111.2082.0153a2.9365 2.9365 0 0 1 .78.1424c.0474.0165.0889.0434.1354.0612a4.9014 4.9014 0 0 1 .717.3358 4.7441 4.7441 0 0 1 1.7678 1.7883 4.9389 4.9389 0 0 1 .5323 1.5668 4.075 4.075 0 0 1 -.0271 1.2944zm-1.3037-.78c-.1487-.4887-.7118-.478-1.0624 0l-1.7424 2.4014c-.2667.4993-.0649 1.105.4026 1.0624h.0011a3.3728 3.3728 0 0 0 2.4011-3.4636zm-27.45 4.9877v8.4278a1.5394 1.5394 0 0 0 1.3535 1.4133h1.5481a1.6035 1.6035 0 0 0 1.4291-1.6255v-9.19a14.274 14.274 0 0 1 -1.7213.6509 9.6818 9.6818 0 0 1 -2.6093.3237zm8.4457-11.7217a6.5061 6.5061 0 0 1 .8023 3.372 6.1631 6.1631 0 0 1 -1.6058 3.7181 11.2561 11.2561 0 0 1 -3.3113 2.5614 13.0328 13.0328 0 0 1 -2.0129.79 6.7219 6.7219 0 0 1 -1.34.2363 3.9955 3.9955 0 0 0 .6017-1.3714 3.7467 3.7467 0 0 0 .0859-.6771 7.6982 7.6982 0 0 0 -1.2354-4.3523 5.8333 5.8333 0 0 0 -3.968-2.6442 4.8078 4.8078 0 0 0 -.4881-.0435c3.0207-4 6.384-4.313 7.7759-4.359.0467-.0015.0926-.0023.1388-.0023a5.8314 5.8314 0 0 1 4.557 2.7722zm-3.2173.77-.0849-.0824a1.1436 1.1436 0 0 0 -1.4122-.0817l-1.51.9718a.9838.9838 0 0 0 -.2955 1.5628l.0581.0724a1.018 1.018 0 0 0 1.2815.1049l1.7138-1.1032a.97.97 0 0 0 .2493-1.4439zm-5.2284 9.91c-.0139.0138-.0263.0275-.0407.0412a4.4489 4.4489 0 0 1 -.6138.4812 7.5722 7.5722 0 0 1 -.8176.4632c-.07.0346-.1278.0689-.202.1036a5.5068 5.5068 0 0 1 -1.8476.3149 4.0349 4.0349 0 0 1 -2.9661-1.1713 6.0093 6.0093 0 0 1 -1.1881-1.486 6.3594 6.3594 0 0 1 -.6364-1.3174 4.53 4.53 0 0 1 -.1571-.5957 4.075 4.075 0 0 1 -.0271-1.2945 4.9389 4.9389 0 0 1 .5324-1.5664 4.7441 4.7441 0 0 1 1.7682-1.788 4.898 4.898 0 0 1 .7164-.3355c.0468-.0179.0885-.0449.136-.0615a2.9365 2.9365 0 0 1 .78-.1424c.0692-.0042.1408-.0153.2082-.0153a4.115 4.115 0 0 1 .6913.0621c3.6389.6207 4.7332 4.522 4.5766 6.3441a2.76 2.76 0 0 1 -.0608.4111 3.0539 3.0539 0 0 1 -.8517 1.5531zm-4.3608-1.5446-1.7424-2.4012c-.3506-.478-.9137-.4887-1.0624 0a2.8429 2.8429 0 0 0 .5737 2.1249 2.8448 2.8448 0 0 0 1.8274 1.3387h.001c.4676.0426.6694-.5631.4027-1.0624z" fill="#1d1d1f"/></svg>