<svg height="54" viewBox="0 0 38 54" width="38" xmlns="http://www.w3.org/2000/svg"><path d="m0 0h38v54h-38z" fill="none"/><path d="m16.2869 49.6675c.1077.1105.228.2063.3469.3038-.0995.0072-.193.0165-.3037.0201-.2398.0079-.5475.0086-.9294.0086h-10.8013c-.382 0-.6896-.0007-.9294-.0086-.3806-.0126-.6885-.0454-.969-.1031-.3395-.0698-.6417-.1762-.9239-.3253-.2926-.1545-.557-.3531-.7859-.5905-.2291-.2374-.4207-.5115-.5696-.8148-.1436-.2924-.2463-.6057-.3138-.9578-.0558-.2914-.0873-.6105-.0995-1.0046-.0085-.2765-.0083-.6398-.0083-1.0996v-33.1915c0-.4598-.0002-.8231.0082-1.0996.0123-.3947.0439-.7138.0995-1.0045.0675-.3521.1702-.6655.3138-.9579.1491-.3035.3407-.5776.5696-.8148.2291-.2374.4935-.4361.7859-.5905.2822-.149.5844-.2555.9239-.3254.2806-.0577.5885-.0905.969-.1031.259-.0084.5973-.0086 1.0224-.0086h10.3132c-.0042.2527-.0056.5443-.0055.9133v.0767h-10.3024c-.4355 0-.7516.0001-.9953.0081-.3227.0106-.5775.0371-.8017.0833-.2466.0508-.4629.1264-.6611.2311-.1997.1054-.3799.2407-.5358.4024-.1575.1632-.2899.3529-.3936.564-.1042.2121-.1795.4436-.2302.7078-.0455.2378-.0717.5076-.0822.8488-.0082.2683-.0079.6215-.0078 1.0687v33.1918c-.0001.4473-.0004.8005.0078 1.0693.0104.3402.0366.6099.0823.8484.0506.2639.1259.4955.2301.7075.1035.2109.2359.4006.3935.564.1558.1616.3361.2969.5357.4024.1984.1048.4146.1804.6611.2311.2244.0462.4794.0727.8023.0834.2311.0076.5281.0081.8967.0081h10.8013c.1384 0 .257-.0004.3755-.0009.1514.2348.3167.4592.5107.6584zm-4.2094-41.1575h-4.1734c-.5046.0052-.9095.4186-.9042.9233.0052.4972.407.899.9042.9042h4.1726c.5046.0053.918-.3995.9233-.9042.0052-.5046-.3996-.918-.9042-.9233zm17.0087-3.9234h-4.1726c-.5046-.0003-.9139.4086-.9142.9132-.0002.5046.4086.9139.9132.9142h4.1736c.5046 0 .9137-.4091.9137-.9137s-.4091-.9137-.9137-.9137zm8.9136 3.3309v37.1649c.0002.462.0002.827-.0084 1.1043-.0122.3949-.0441.7147-.1006 1.0065-.0684.3527-.1723.6667-.3177.96-.1511.3041-.345.5788-.5766.8166-.2319.238-.4995.4371-.7954.5919-.2856.1495-.5916.2562-.9351.3262-.2838.0579-.5953.0908-.9802.1034-.2393.0078-.5456.0087-.9252.0087-.049 0-.099 0-.1505 0h-12.4203c-.0514 0-.1016 0-.1506 0-.3797 0-.6859-.0009-.9251-.0087-.3849-.0126-.6965-.0455-.9804-.1034-.2609-.0532-.4955-.1352-.7205-.2333-.0713-.0311-.1458-.0569-.2145-.0928-.296-.1547-.5636-.3538-.7955-.5919-.0099-.0101-.0174-.0224-.0271-.0327-.2188-.2308-.405-.493-.5494-.7839-.1456-.2933-.2496-.6074-.3177-.96-.0564-.2916-.0884-.6115-.1006-1.0065-.0087-.2764-.0085-.6398-.0084-1.0999v-37.1738c-.0001-.3694.001-.6605.0055-.9102.0011-.0613.0012-.1351.0029-.1896.0123-.3951.0443-.715.1006-1.0065.0682-.3526.1722-.6667.3177-.96.151-.3041.345-.5788.5765-.8165.2318-.238.4994-.4371.7955-.5919.2856-.1494.5914-.2561.935-.3262.284-.0579.5955-.0908.9804-.1035.2327-.0076.5289-.0086.8945-.0086h12.6473c.4283 0 .7687 0 1.0297.0085.3849.0127.6963.0456.9802.1035.3436.0701.6495.1768.9351.3262.2961.1548.5636.3539.7954.5919.2315.2375.4254.5123.5766.8165.1454.2934.2493.6074.3177.9601.0565.2918.0884.6116.1006 1.0065.0086.2772.0086.6422.0084 1.1043h.0002zm-1 0c.0002-.4494.0004-.8041-.0079-1.0734-.0106-.3404-.0369-.6097-.0829-.8475-.051-.2629-.1269-.494-.232-.7061-.1044-.2101-.238-.3997-.3966-.5624-.1582-.1624-.3407-.2982-.5427-.4037-.2015-.1054-.421-.1815-.6715-.2325-.2277-.0464-.4861-.0731-.8134-.0839-.2448-.0079-.5629-.008-.9612-.008h-12.683c-.3524 0-.6379.0007-.8622.008-.3267.0108-.5852.0374-.8129.0839-.2504.0511-.47.1271-.6712.2324-.2025.1058-.3849.2416-.5427.4036-.1589.1631-.2925.3527-.3972.5635-.1049.2114-.1807.4422-.2317.7054-.046.2377-.0723.507-.0829.8475-.002.0639-.0023.1488-.0034.2224-.0036.2358-.0046.5056-.0045.8463v37.1743c0 .447-.0005.8.0079 1.0685.0106.3405.0369.6099.0829.8478.0509.2631.1266.4938.2316.7051.1046.2108.2382.4002.3973.5637.0868.0891.1975.1494.2984.2219.0825.0593.153.1339.2439.1814.2016.1055.421.1815.6715.2325.0352.0072.0775.0109.1143.0171.2012.0341.4225.0576.6993.0667.2304.0075.5259.0082.8922.0082h.1506s12.4983 0 12.4983 0h.0724c.3663 0 .6618-.0006.8927-.0081.327-.0107.5854-.0374.813-.0837.2505-.0511.4701-.1271.6711-.2324.2025-.1058.3849-.2415.5428-.4036.1589-.1631.2926-.3528.3974-.5638.1046-.211.1805-.442.2316-.7054.046-.2373.0723-.5066.0828-.847.0083-.2693.0081-.624.0079-1.0729z"/></svg>