<svg height="54" viewBox="0 0 22 54" width="22" xmlns="http://www.w3.org/2000/svg"><path d="m0 0h22v54h-22z" fill="none"/><path d="m21.9999 10.3916c-.0009-.5905-.001-1.1987-.1265-1.7795-.1274-.5899-.3793-1.121-.7939-1.5656-.4133-.4433-.9233-.73-1.493-.882-.5691-.1517-1.1558-.1613-1.7386-.1638-.1101-.0005-13.9304 0-14.1207.0049-.3142.0079-.6284.0273-.9366.0785-.2952.049-.5798.1262-.855.2461-.3021.1315-.5814.3095-.83.5342-.4843.4377-.7922.9929-.9489 1.6189-.156.6227-.1556 1.2724-.1566 1.9083-.0002.1477 0 .2994 0 .4499v34.7673c.001.5904.001 1.1987.1264 1.7794.1275.59.3793 1.121.794 1.5657.4134.4432.9233.7299 1.4931.8819.569.1517 1.1558.1638 1.7385.1638 3.499 0 9.3431 0 13.5517.0004.5955-.001 1.1959-.0005 1.7772-.1381.5875-.139 1.1155-.4125 1.5485-.8552.433-.4428.7001-.9822.8358-1.5824.1342-.5939.1336-1.2075.1345-1.8155h.0001v-34.7673c0-.1505.0002-.3021-.0001-.4499zm-12.6588-3.8804c0-.0715.0581-.1296.1296-.1296h3.0587c.0715 0 .1296.0582.1296.1296v.02c0 .0715-.0581.1296-.1296.1296h-3.0587c-.0715 0-.1296-.0582-.1296-.1296zm-1.5714.8331c.0773-.1355.2401-.2172.3936-.2039.194.0167.3731.1849.3731.4094s-.1793.3926-.3734.4094c-.1536.0131-.3165-.0687-.3936-.2043-.0695-.1223-.0694-.2884.0002-.4105zm13.2303 3.4223v34.8622c-.001.5638-.0018 1.0964-.11 1.5751-.1019.4511-.2902.8121-.5753 1.1037-.2822.2885-.6302.4787-1.0638.5813-.4629.1095-.9816.1103-1.547.1112h-13.0392c-.125.0004-.381-.0002-.5083-.0004-.5741-.0024-1.048-.0135-1.4851-.13-.408-.1088-.751-.3099-1.0194-.5977-.2726-.2923-.4518-.6505-.5479-1.0947-.102-.4724-.1029-.9983-.1039-1.5683v-34.7675c0-.111 0-.3514 0-.4653.0009-.5922.0017-1.1516.1266-1.65.1144-.4572.3329-.8339.6494-1.12.1642-.1484.3521-.2693.5587-.3592.1837-.08.3863-.1377.6196-.1765.2215-.0368.4676-.0569.7978-.0652.1827-.0046 2.229-.0051 2.8644-.0051.0518 0 .106-.0026.1648.0085.0569.0106.1058.0323.1439.0695.038.0372.0607.0858.0727.1423.0124.0586.0112.1126.0129.1647.0041.1268.0052.2414.0284.3705.0223.1236.0617.2365.1232.3446.0954.1675.2381.3117.4058.4083.1334.0769.2741.1195.4271.1394.1575.0204.3007.0145.4559.0145h5.0972c.1553 0 .2985.0059.456-.0145.153-.0199.2936-.0625.4271-.1394.1677-.0966.3104-.2408.4058-.4083.0615-.1082.101-.221.1232-.3446.0232-.1292.0244-.2437.0284-.3705.0016-.0521.0005-.1061.0129-.1647.012-.0565.0347-.1051.0727-.1423.0379-.0371.087-.0589.1438-.0695.0588-.011.113-.0085.1649-.0085.6354 0 2.4601.0005 2.4601.0005.5746.0025 1.0488.0137 1.4853.13.408.1088.7509.3099 1.0194.5978.2726.2924.4518.6504.5477 1.0946.1022.4731.103.9999.1039 1.5701 0 .0719.0002.3053.0001.3732z"/></svg>