<svg xmlns="http://www.w3.org/2000/svg" viewBox="0 0 19 54"><title>iphone_se_large_</title><rect width="19" height="54" fill="none"/><path d="M16,10H3a3.009,3.009,0,0,0-3,3V47a3.009,3.009,0,0,0,3,3H16a3.009,3.009,0,0,0,3-3V13A3.009,3.009,0,0,0,16,10ZM7.25,12.25h4.5a.25.25,0,0,1,0,.5H7.25a.25.25,0,0,1,0-.5ZM5.5,12.125a.375.375,0,1,1-.375.375A.375.375,0,0,1,5.5,12.125Zm4,37.125a1.75,1.75,0,1,1,1.75-1.75A1.75,1.75,0,0,1,9.5,49.25ZM18,45H1V15H18Z" fill="#1d1d1f"/><circle cx="9.5" cy="47.5" r="1.125" fill="#1d1d1f"/></svg>