<svg viewBox="0 0 29 54" xmlns="http://www.w3.org/2000/svg"><path d="m-1.75 0h32v54h-32z" fill="none"/><path d="m0 0h29v54h-29z" fill="none"/><path d="m14.5 22.5a13.75 13.75 0 1 0 13.75 13.75 13.75 13.75 0 0 0 -13.75-13.75zm0 25.85a12.1 12.1 0 1 1 12.1-12.1 12.114 12.114 0 0 1 -12.1 12.1zm0-23.1a11 11 0 1 0 11 11 11 11 0 0 0 -11-11zm.474 6.256a1.857 1.857 0 0 1 1.357-.679 1.96 1.96 0 0 1 -.484 1.455 1.587 1.587 0 0 1 -1.357.678 1.9 1.9 0 0 1 .484-1.454zm2.654 7.478c-.376.574-.807 1.152-1.442 1.152-.6 0-.808-.388-1.505-.388-.749 0-.976.388-1.549.388-.635 0-1.069-.609-1.466-1.177a5.788 5.788 0 0 1 -.958-3.031 3.176 3.176 0 0 1 .388-1.673 2.368 2.368 0 0 1 1.939-1.2c.609-.021 1.131.436 1.5.436a11.821 11.821 0 0 1 1.793-.436 2.016 2.016 0 0 1 1.7.921 2.165 2.165 0 0 0 -1.009 1.81 2.113 2.113 0 0 0 1.252 1.874 4.772 4.772 0 0 1 -.643 1.324z" fill="#1d1d1f"/></svg>