<svg height="54" viewBox="0 0 38 54" width="38" xmlns="http://www.w3.org/2000/svg"><path d="m0 0h38v54h-38z" fill="none"/><path d="m16.5241 48.5986c-.1835-.3735-.3138-.7695-.3985-1.2107-.0659-.3441-.103-.7133-.1168-1.1622-.0086-.2819-.0088-.6514-.0087-1.1304v-.1717s0-32.8469 0-32.8469v-.184c-.0001-.4671 0-.8367.0087-1.1191.0139-.4483.051-.8174.1169-1.1617.0845-.441.2148-.837.3984-1.2106.195-.3969.4465-.7563.7474-1.068.3029-.314.6525-.5767 1.0386-.7805.3669-.1938.756-.3314 1.1893-.4206.3375-.0695.699-.1086 1.1379-.1231.2673-.0087.6164-.0092 1.0992-.0092h.1601s.0222 0 .0222 0h1.0001c-.0097-.0636-.0161-.1326-.0278-.1934-.0684-.3527-.1724-.6667-.3177-.9601-.1511-.3042-.3451-.579-.5766-.8165-.2318-.2379-.4993-.4371-.7953-.5919-.0789-.0413-.1639-.0717-.2462-.1065-.2158-.0914-.4402-.1689-.689-.2197-.2839-.0579-.5953-.0908-.9802-.1035-.27-.0087-.6248-.0085-1.0743-.0085h-.1686s-.7548 0-.7548 0h-12.4998c-.1534-.0001-.2809.0002-.4127.0005-.0713.0002-.1475.0002-.2126.0007-.1689.0012-.3201.0031-.449.0073-.3849.0127-.6964.0456-.9804.1035-.3436.0701-.6494.1768-.9349.3262-.2961.1548-.5637.3539-.7955.5919-.2315.2377-.4255.5124-.5765.8165-.1456.2933-.2495.6074-.3177.96-.0564.2916-.0884.6114-.1006 1.0065-.0087.2767-.0087.6401-.0085 1.1002v.1762s0 36.8214 0 36.8214v.1762c-.0002.4601-.0002.8235.0084 1.0999.0123.395.0443.7148.1006 1.0065.0682.3527.1721.6667.3177.96.1508.3039.3447.5786.5765.8166.2319.238.4995.4371.7955.5919.2856.1495.5915.2562.935.3262.2839.0579.5955.0908.9804.1034.2392.0078.5453.0087.9251.0087.0489 0 .0991-.0001.1504-.0001h12.6138c.0884 0 .1636-.0005.2438-.0007-.13-.1053-.2594-.2116-.376-.3325-.3015-.3124-.553-.6719-.7474-1.0681zm-4.1004-40.8486v5c0 1.3785-1.1215 2.5-2.5 2.5h-5c-1.3785 0-2.5-1.1215-2.5-2.5v-5c0-1.3785 1.1215-2.5 2.5-2.5h5c1.3785 0 2.5 1.1215 2.5 2.5zm22.0763 19.25v18c0 .8271-.6729 1.5-1.5 1.5h-10.0267c.0057-.0945.0146-.1802.0178-.2823.0002-.0081.0002-.02.0004-.0283 0-.001.0002-.0017.0002-.0027.0086-.2773.0086-.6423.0084-1.1043v-19.5825h9.9999c.8271 0 1.5.6729 1.5 1.5zm-11.5001 18.082c.0002.4616-.0004.8253-.0084 1.1074-.0035.113-.0124.2087-.0193.3105h-.9722c-.0095 0-.0182-.0026-.0277-.0028-.814-.0153-1.4723-.6796-1.4723-1.4972v-18c0-.8271.6729-1.5 1.4999-1.5h1v19.582zm14.9918-34.2774c-.0121-.3942-.0436-.7133-.0993-1.0045-.0676-.3521-.1703-.6655-.3138-.9579-.1492-.3035-.3409-.5776-.5696-.8147-.2289-.2374-.4933-.436-.7859-.5905-.2823-.149-.5845-.2555-.9239-.3254-.2807-.0577-.5886-.0905-.9691-.1031-.2391-.0078-.5457-.0086-.9257-.0086h-.3009s-10.1088 0-10.1088 0h-1.2583c-.0148 0-.0294 0-.044 0-.425 0-.7634.0002-1.0223.0086-.3805.0126-.6884.0453-.969.1031-.3395.0699-.6417.1763-.924.3254-.2925.1544-.5568.353-.7859.5905-.2289.2372-.4205.5113-.5696.8148-.1437.2924-.2463.6058-.3138.9579-.0556.2906-.0873.6098-.0995 1.0045-.0084.2766-.0083.6398-.0082 1.0996v.1722s0 32.8472 0 32.8472v.1721c-.0001.4598-.0002.8231.0082 1.0995.0121.394.0437.7132.0995 1.0046.0676.3522.1702.6655.3138.9578.1489.3032.3405.5773.5696.8148.2289.2374.4933.436.7859.5905.2189.1157.4559.1985.7069.2656.0726.0194.1408.044.217.0597.0879.0181.1855.0295.2802.0429.151.0212.3163.0371.4937.0473.0664.0038.124.0106.1952.0129.1784.0059.4081.0073.6642.0079.0881.0002.1674.0007.2651.0007h11.8013c.3818 0 .6896-.0007.9294-.0086.3806-.0126.6885-.0454.9691-.1031.3394-.0698.6416-.1762.9239-.3253.2928-.1547.5572-.3533.7859-.5905.2289-.2373.4205-.5114.5696-.8148.1437-.2927.2463-.606.3138-.9578.0557-.2911.0872-.6104.0993-1.0045.0085-.2751.0084-.6357.0082-1.0922v-33.2063c.0002-.4566.0003-.8173-.0082-1.0923zm-2.4917 34.1954c0 1.3807-1.1193 2.5-2.5 2.5h-11c-.0629 0-.1219-.0139-.1837-.0185-1.2933-.0956-2.3163-1.1638-2.3163-2.4815v-18c0-1.3807 1.1192-2.5 2.4999-2.5h1v-5h.0002v5h9.9999c1.3807 0 2.5 1.1193 2.5 2.5zm-14-26c-1.3785 0-2.5-1.1215-2.5-2.5v-5c0-1.3785 1.1215-2.5 2.5-2.5h5c1.3785 0 2.5 1.1215 2.5 2.5v5c0 1.3785-1.1215 2.5-2.5 2.5zm1.5001-10.9107v.4107h-.0002v-.5099h.0002z" fill="#1d1d1f"/></svg>