<svg height="120" viewBox="0 0 120 120" width="120" xmlns="http://www.w3.org/2000/svg" xmlns:xlink="http://www.w3.org/1999/xlink"><mask id="a" fill="#fff"><path d="m0 0h120v120h-120z" fill="#fff" fill-rule="evenodd"/></mask><path d="m81.427891 14c6.6267408 0 11.9987757 5.3720348 11.9987757 11.9987756v68.0024488c0 6.6267406-5.3720349 11.9987756-11.9987757 11.9987756h-42.855782c-6.6267408 0-11.9987757-5.372035-11.9987757-11.9987756v-68.0024488c0-6.6267408 5.3720349-11.9987756 11.9987757-11.9987756zm-3.3387817 77.2766208h-16.5583104c-1.0886788 0-1.9712274.8825485-1.9712274 1.9712274 0 1.0886788.8825486 1.9712274 1.9712274 1.9712274h16.5583104c1.0886788 0 1.9712274-.8825486 1.9712274-1.9712274 0-1.0886789-.8825486-1.9712274-1.9712274-1.9712274zm-13.4043465-11.0388736h-26.020202c-1.0886789 0-1.9712275.8825485-1.9712275 1.9712274 0 1.0886788.8825486 1.9712274 1.9712275 1.9712274h26.020202c1.0886788 0 1.9712274-.8825486 1.9712274-1.9712274 0-1.0886789-.8825486-1.9712274-1.9712274-1.9712274zm13.4043465 0h-5.5194368c-1.0886789 0-1.9712274.8825485-1.9712274 1.9712274 0 1.0886788.8825485 1.9712274 1.9712274 1.9712274h5.5194368c1.0886788 0 1.9712274-.8825486 1.9712274-1.9712274 0-1.0886789-.8825486-1.9712274-1.9712274-1.9712274zm-13.4043465-11.0388736h-26.020202c-1.0886789 0-1.9712275.8825486-1.9712275 1.9712274 0 1.0886789.8825486 1.9712274 1.9712275 1.9712274h26.020202c1.0886788 0 1.9712274-.8825485 1.9712274-1.9712274 0-1.0886788-.8825486-1.9712274-1.9712274-1.9712274zm13.4043465 0h-5.5194368c-1.0886789 0-1.9712274.8825486-1.9712274 1.9712274 0 1.0886789.8825485 1.9712274 1.9712274 1.9712274h5.5194368c1.0886788 0 1.9712274-.8825485 1.9712274-1.9712274 0-1.0886788-.8825486-1.9712274-1.9712274-1.9712274zm-13.4043465-11.0388736h-26.020202c-1.0886789 0-1.9712275.8825486-1.9712275 1.9712274 0 1.0886789.8825486 1.9712275 1.9712275 1.9712275h26.020202c1.0886788 0 1.9712274-.8825486 1.9712274-1.9712275 0-1.0886788-.8825486-1.9712274-1.9712274-1.9712274zm13.4043465 0h-5.5194368c-1.0886789 0-1.9712274.8825486-1.9712274 1.9712274 0 1.0886789.8825485 1.9712275 1.9712274 1.9712275h5.5194368c1.0886788 0 1.9712274-.8825486 1.9712274-1.9712275 0-1.0886788-.8825486-1.9712274-1.9712274-1.9712274zm-14.1207924-28.3198326c-1.9296857 0-3.634682 1.0626917-4.5466568 1.0626917-.9516258 0-2.3394135-1.1151703-3.8990226-1.0626917-2.0354219.039359-3.8990225 1.2332471-4.9431675 2.9912803-.7401535 1.2594864-1.030928 2.7420068-1.004494 4.2507666.0396511 2.8469641 1.1630983 5.812005 2.4848008 7.7012346 1.017711 1.4431615 2.1675922 2.9912802 3.7932864 2.9912802 1.4670898 0 2.0089879-.9708541 3.9254566-.9708541 1.7842985 0 2.3394135.9708541 3.8858055.9708541 1.6256942 0 2.6962733-1.4694008 3.6611161-2.925682 1.2159664-1.6924348 1.6256942-3.3061518 1.6785623-3.37175-.0528681 0-3.1192181-1.2332471-3.2381713-4.7493134 0-3.0831177 2.5244519-4.4738006 2.6301881-4.5393989-1.3745707-2.099144-3.595031-2.3484174-4.4277036-2.3484174zm.1189532-5.7201674c-1.2424004 0-2.6830562.7215808-3.5950309 1.7842724-.7137194.8790166-1.4803069 2.2565798-1.2027494 3.6341431 1.2820515.1574358 2.6698392-.6428629 3.4628608-1.7055545.9119747-.9839738 1.4142217-2.3352977 1.3349195-3.712861z" fill="#77c5f5" fill-rule="evenodd" mask="url(#a)"/></svg>