<svg height="120" viewBox="0 0 120 120" width="120" xmlns="http://www.w3.org/2000/svg" xmlns:xlink="http://www.w3.org/1999/xlink"><mask id="a" fill="#fff"><path d="m0 0h120v120h-120z" fill="#fff" fill-rule="evenodd"/></mask><g fill="none" mask="url(#a)"><g transform="translate(14.262857 30.034286)"><path d="m16.7424891 42.227532c2.1771369 0 3.9556431-1.7951503 3.9556431-3.9617111 0-2.1975116-1.7785062-3.9617111-3.9556431-3.9617111-2.1771368 0-3.9249791 1.7641995-3.9249791 3.9617111 0 2.1665608 1.7478423 3.9617111 3.9249791 3.9617111zm12.3268876 0c2.1771369 0 3.9556431-1.7951503 3.9556431-3.9617111 0-2.1975116-1.7785062-3.9617111-3.9556431-3.9617111-2.2078007 0-3.955643 1.7641995-3.955643 3.9617111 0 2.1665608 1.7478423 3.9617111 3.955643 3.9617111zm12.2962237 0c2.146473 0 3.9249792-1.7951503 3.9249792-3.9617111 0-2.1975116-1.7785062-3.9617111-3.9249792-3.9617111-2.1771368 0-3.955643 1.7641995-3.955643 3.9617111 0 2.1665608 1.7785062 3.9617111 3.955643 3.9617111z" fill="#8e8e93"/><path d="m69.3310768 59.9314286c5.795477 0 8.9538586-3.064136 8.9538586-8.91385v-25.6273188l-4.9368878 4.9830898v20.8918359c0 2.5689221-1.4412033 4.0236129-3.9863069 4.0236129h-60.43854594c-2.54510366 0-3.98630694-1.4546908-3.98630694-4.0236129v-26.02968c0-2.5689221 1.44120328-4.0236129 3.98630694-4.0236129h49.64485334l4.6302488-4.6426302h-54.21377434c-5.79547701 0-8.98452256 3.064136-8.98452256 8.91385v25.5344662c0 5.849714 3.18904555 8.91385 8.98452256 8.91385z" fill="#c7c7cc"/><path d="m88.3426945 7.50065807 2.2997924-2.35226597c1.1039004-1.14518212 1.1039004-2.66177466.0306639-3.71410417l-.7359335-.74282084c-.9812448-.99042777-2.5144398-.89757517-3.5570124.15475435l-2.2997924 2.29036423z" fill="#8e8e93"/><path d="m53.109874 39.5657574 6.2554354-2.816529 26.7082565-26.92725523-4.2929459-4.30217066-26.6775926 26.92725519-2.9437343 6.097321c-.2453112.5261648.3679668 1.2689856.9505809 1.0213787z" fill="#3478f6"/></g></g></svg>