<svg height="120" viewBox="0 0 120 120" width="120" xmlns="http://www.w3.org/2000/svg" xmlns:xlink="http://www.w3.org/1999/xlink"><mask id="a" fill="#fff"><path d="m0 0h120v120h-120z" fill="#fff" fill-rule="evenodd"/></mask><g fill="none" fill-rule="evenodd" mask="url(#a)"><g transform="matrix(.70710678 .70710678 -.70710678 .70710678 77.40687 -8.680891)"><path d="m19.1355987 48.2788364 32.19195-36.7882033-11.5295844-11.4906331-36.82715455 32.19195c-3.77827597 3.3498117-3.97303246 6.8554286-.46741558 10.3610455l6.23220779 6.1932564c3.46666554 3.4666656 7.05018504 3.2719091 10.39999674-.4674155z" fill="#e94f3d" fill-rule="nonzero" transform="matrix(.70710678 -.70710678 .70710678 .70710678 0 85.528121)"/><path d="m32.1836763 65.3016535v-41.3699756h7.9772259v41.3699756z" fill="#c7c7cc"/><rect fill="#e94f3d" height="10.636301" rx="5.318151" width="28.36347" x="21.547375" y="57.17012"/><path d="m33.2419518 0h5.8606707c.6282529-.00000215 1.1813108.41415145 1.3581151 1.01701298 2.4591851 8.38525107 3.6887776 13.70228142 3.6887776 15.95109092 0 2.3384193-1.3295376 5.1027899-3.988613 8.2931117h-7.9772259c-2.6590754-3.1903218-3.988613-5.9546924-3.988613-8.2931117 0-2.2488089 1.2295918-7.56583679 3.6887755-15.95108368.1767984-.6028653.7298581-1.01702022 1.358113-1.01702022z" fill="#c7c7cc"/></g></g></svg>