<svg enable-background="new 0 0 38 54" height="54" viewBox="0 0 38 54" width="38" xmlns="http://www.w3.org/2000/svg"><path d="m16.1288 50.1815c-.8385-.2121-1.6202-.4836-2.3442-.8145l-10.7554-4.8428c-.8491-.3824-1.48-.7631-1.8943-1.1406-.4135-.3775-.6202-.8975-.6202-1.5598v-1.1796c0-.2586.1056-.4241.3176-.4969.2121-.0723.3904-.0776.5359-.0155l11.5789 5.246c1.1481.5279 2.1853.8824 3.1117 1.0634.9254.181 1.9112.2715 2.9564.2715 1.0141 0 2.0363-.1087 3.0655-.3261 1.0292-.2169 2.031-.543 3.0034-.9778l11.5629-5.246c.1446-.0621.3212-.0621.5279 0s.3105.2227.3105.4813v1.1796c0 .6623-.2076 1.1823-.6211 1.5598s-1.0399.7582-1.8783 1.1406l-10.7715 4.8429c-.724.331-1.5048.6025-2.3433.8145-.8384.212-1.7958.3185-2.8712.3185-1.0762 0-2.0336-.1065-2.8712-.3185zm.2476-5.8667c-.8793-.181-1.7435-.4632-2.5917-.846l-11.641-5.3081c-.5377-.2484-.9361-.5381-1.1952-.8691-.2582-.331-.3877-.6832-.3877-1.0554 0-.362.1295-.7116.3877-1.0479.2591-.3358.6681-.6286 1.2262-.8771l11.6099-5.3081c.59-.2688 1.2085-.4911 1.8553-.6672.6459-.1757 1.2893-.2999 2.0035-.3727v8.6296c0 .228.1216.4299.3647.6056.2431.1761.5881.264.9918.264.4144 0 .7488-.0878.9919-.264.2431-.1757.3646-.3775.3646-.6056v-8.6296c.6832.0728 1.3487.1917 1.9805.3571.6308.1655 1.2723.3935 1.9245.6828l10.9267 4.9825c.4862.2174.9902.512 1.5128.8846.5226.3727.7843.8278.7843 1.3659 0 .5483-.2591 1.0062-.7764 1.3735s-1.0141.6597-1.4897.8771l-10.9578 4.982c-.8589.3829-1.7284.665-2.6077.846s-1.7595.2715-2.6387.2715-1.7584-.0904-2.6385-.2714zm-6.8906-6.9845c.4756-.2946.7134-.6544.7134-1.0785 0-.4139-.2378-.7684-.7134-1.0634-.4765-.295-1.0559-.4423-1.739-.4423-.6823 0-1.2644.1473-1.7461.4423-.4809.295-.7213.6495-.7213 1.0634 0 .4241.2404.7839.7213 1.0785.4818.295 1.0638.4423 1.7461.4423.6832 0 1.2626-.1473 1.739-.4423zm12.0669-11.3225c.7604-.4552 1.3682-1.0656 1.8242-1.8313.4552-.7657.6823-1.6144.6823-2.5456s-.2271-1.7772-.6823-2.5376c-.4561-.7604-1.0638-1.3682-1.8242-1.8238-.7604-.4552-1.606-.6828-2.5376-.6828-.9307 0-1.7799.2276-2.5456.6828-.7657.4556-1.3788 1.0634-1.8393 1.8238s-.6903 1.6064-.6903 2.5376.2298 1.7799.6903 2.5456 1.0736 1.3762 1.8393 1.8313c.7657.4556 1.6148.6828 2.5456.6828.9316 0 1.7772-.2272 2.5376-.6828z" fill="#f5f5f7"/><path d="m0 0h38v54h-38z" fill="none"/></svg>