<svg enable-background="new 0 0 32 54" height="54" viewBox="0 0 32 54" width="32" xmlns="http://www.w3.org/2000/svg"><path d="m2.7 49.5c-.4.3-.8.5-1.4.5-.7 0-1.3-.4-1.3-1.4v-22.9c.7-1.5 4-3.7 7.9-3.7 3.1 0 6.1 1.5 7.1 3.4v24.4c-.2 0-1-.5-1.2-.6-.8-.5-2.5-1.5-5.1-1.5-2.9 0-5.1 1-6 1.8zm15.6-.3c-.3.2-1.1.7-1.3.7v-24.5c1-1.9 4-3.4 7.1-3.4 3.9 0 7.2 2.2 7.9 3.7v22.8c0 1-.6 1.4-1.3 1.4-.6 0-1-.2-1.3-.5-.9-.8-3.1-1.8-6-1.8-2.7.1-4.4 1-5.1 1.6z" fill="#f5f5f7"/><path d="m0 0h32v54h-32z" fill="none"/></svg>