<svg id="Outlined" xmlns="http://www.w3.org/2000/svg" width="56" height="54" viewBox="0 0 56 54"><g id="appleone.logo"><rect id="box_" width="56" height="54" fill="none"/><path id="art_" d="M31.5745,37.1252c0,4.9758-2.8294,8.0764-7.3283,8.0764-4.5098,0-7.3285-3.1006-7.3285-8.0764s2.8187-8.0873,7.3285-8.0873c4.4989,0,7.3283,3.1113,7.3283,8.0873Zm-12.1741,0c0,3.6425,1.8754,5.9406,4.8458,5.9406s4.8349-2.2981,4.8349-5.9406c0-3.6535-1.8646-5.9518-4.8349-5.9518s-4.8458,2.2983-4.8458,5.9518Zm14.0922-3.5885h2.2332v1.9081h.0542c.6179-1.3008,1.8322-2.1032,3.5885-2.1032,2.5149,0,3.9569,1.6045,3.9569,4.217v7.3828h-2.3526v-6.9273c0-1.7128-.8021-2.6561-2.4283-2.6561-1.6477,0-2.71,1.1708-2.71,2.938v6.6453h-2.3418v-11.4047Zm21.8674,8.0548c-.3251,2.0814-2.2983,3.5665-4.9108,3.5665-3.3499,0-5.3769-2.2654-5.3769-5.865,0-3.5773,2.0597-5.9623,5.2795-5.9623,3.1654,0,5.1383,2.2332,5.1383,5.6913v.8026h-8.0545v.1409c0,1.9836,1.1923,3.2955,3.0678,3.2955,1.3335,0,2.32-.6721,2.6343-1.6695h2.2224Zm-7.9138-3.4042h5.7023c-.0542-1.7451-1.1599-2.9702-2.7968-2.9702s-2.7861,1.2467-2.9055,2.9702Zm-36.6807-5.9715c-1.3957-.1033-2.5797,.7796-3.2404,.7796-.6702,0-1.7036-.7573-2.7993-.7366-1.4387,.0211-2.7647,.8372-3.5066,2.1253-1.4943,2.5938-.3815,6.4373,1.0741,8.542,.712,1.0285,1.5612,2.1874,2.6766,2.1452,1.0736-.0423,1.4798-.6944,2.7775-.6944,1.2969,0,1.6629,.6944,2.7981,.6736,1.1556-.0215,1.8877-1.0498,2.5945-2.0839,.8178-1.1937,1.154-2.3496,1.1739-2.4107-.0256-.0097-2.2526-.8641-2.2748-3.4299-.0201-2.1451,1.7509-3.1762,1.8314-3.2259-1.0053-1.4806-2.5581-1.6439-3.1051-1.6844Zm-.8612-1.3894c.5928-.7164,.9916-1.7141,.8817-2.7064-.8531,.0338-1.8849,.5683-2.4968,1.2842-.548,.6342-1.0292,1.6499-.8985,2.622,.9509,.0735,1.9214-.483,2.5136-1.1998Z" fill="#f5f5f7"/></g></svg>