<svg enable-background="new 0 0 47 54" height="54" viewBox="0 0 47 54" width="47" xmlns="http://www.w3.org/2000/svg"><path d="m10.4132 30.7699c.6353-.7581.9508-1.7335.88-2.72-.9733.0924-1.8729.5584-2.51 1.3-.6379.7141-.9622 1.6545-.9 2.61.9828.0199 1.9185-.4203 2.53-1.19m.82 1.37c-1.4-.08-2.58.79-3.25.79s-1.69-.75-2.79-.73c-1.462.0385-2.7941.8491-3.5 2.13-1.5 2.58-.4 6.42 1.06 8.52.71 1 1.56 2.19 2.69 2.15s1.48-.69 2.77-.69 1.67.69 2.79.67 1.9-1 2.6-2.08c.504-.7392.8981-1.5476 1.17-2.4-1.3702-.597-2.26-1.9454-2.27-3.44.0182-1.3186.7083-2.5366 1.83-3.23-.7154-1.0135-1.8605-1.6378-3.1-1.69m8.93-2v2.83h2.28v1.87h-2.28v6.7c0 1 .45 1.51 1.45 1.51.2742-.0053.5479-.0253.82-.06v1.88c-.4463.0721-.898.1056-1.35.1-2.36 0-3.27-.91-3.27-3.19v-6.9h-1.79v-1.87h1.74v-2.87zm10.25 14.73h-2.5l-4.2-11.86h2.49l2.95 9.53h.06l2.95-9.53h2.44zm10.98 0h-2.16v-4.86h-4.64v-2.14h4.63v-4.86h2.16v4.86h4.64v2.14h-4.63z" fill="#f5f5f7"/><path d="m0 0h47v54h-47z" fill="none"/></svg>