<svg enable-background="new 0 0 34 54" height="54" viewBox="0 0 34 54" width="34" xmlns="http://www.w3.org/2000/svg"><path d="m16.9924 16.5c8.6982 0 15.7486 7.0504 15.7486 15.7486 0 6.7907-4.3037 12.5896-10.346 14.772l.3046-2.4722c4.6694-2.1213 7.8896-6.8213 7.8896-12.3304 0-7.5383-6.0432-13.5662-13.5968-13.5662-7.5383 0-13.5815 6.0432-13.5815 13.5968 0 5.4938 3.2202 10.1938 7.8743 12.3151l.3208 2.4569c-6.0432-2.1977-10.347-7.9965-10.347-14.8025 0-8.6982 7.0352-15.7181 15.7334-15.7181zm0 5.204c5.7835 0 10.5446 4.7305 10.5446 10.5446 0 3.4947-1.7395 6.5926-4.3792 8.5001l.0611-.3819c.1069-.8239 0-1.5867-.2749-2.2583 1.4951-1.465 2.4268-3.5405 2.4268-5.8599 0-4.6541-3.6478-8.3779-8.3784-8.3779-4.7152 0-8.3775 3.7238-8.3775 8.3779 0 2.3042.9156 4.3797 2.4259 5.8599-.2597.6563-.3657 1.4344-.2597 2.2431l.0458.3819c-2.6397-1.8922-4.3639-5.0055-4.3639-8.5154 0-5.8141 4.7458-10.5141 10.5294-10.5141zm0 28.796c-1.7395 0-2.9911-1.0072-3.2202-2.8841l-.9156-7.4624c-.3046-2.35 1.6029-3.815 4.1357-3.815 2.5481 0 4.4412 1.4803 4.151 3.815l-.9156 7.4624c-.229 1.8769-1.4806 2.8841-3.2353 2.8841zm-3.647-19.5178c0-2.0297 1.6173-3.6627 3.6469-3.6627s3.6622 1.633 3.6622 3.6627-1.6478 3.6469-3.6622 3.6469c-2.0296.0001-3.6469-1.6172-3.6469-3.6469z" fill="#f5f5f7"/><path d="m0 0h34v54h-34z" fill="none"/></svg>